<?xml version="1.0" encoding="utf-8"?>
<!-- Generator: Adobe Illustrator 20.1.0, SVG Export Plug-In . SVG Version: 6.00 Build 0)  -->
<svg version="1.1" id="phones_1_" xmlns="http://www.w3.org/2000/svg" xmlns:xlink="http://www.w3.org/1999/xlink" x="0px" y="0px"
	 viewBox="0 0 22 20" style="enable-background:new 0 0 22 20;" xml:space="preserve">
<style type="text/css">
	.st0{fill-rule:evenodd;clip-rule:evenodd;}
</style>
<g id="phones">
	<g>
		<path class="st0" d="M15.6,0H6.4C5.5,0,4.8,0.7,4.8,1.7v16.7c0,0.9,0.7,1.7,1.6,1.7h9.2c0.9,0,1.6-0.7,1.6-1.7V1.7
			C17.2,0.7,16.5,0,15.6,0z M16.5,18.3c0,0.5-0.4,0.9-0.9,0.9H6.4c-0.5,0-0.9-0.4-0.9-0.9v-2.9h11V18.3z M16.5,14.7h-11V3h11V14.7z
			 M16.5,2.3h-11V1.7c0-0.5,0.4-0.9,0.9-0.9h9.2c0.5,0,0.9,0.4,0.9,0.9V2.3z M11,18.9c0.8,0,1.5-0.7,1.5-1.5s-0.7-1.5-1.5-1.5
			c-0.8,0-1.5,0.7-1.5,1.5S10.2,18.9,11,18.9z M11,16.6c0.4,0,0.7,0.3,0.7,0.8c0,0.4-0.3,0.8-0.7,0.8c-0.4,0-0.7-0.3-0.7-0.8
			C10.3,16.9,10.6,16.6,11,16.6z M11,1.1H9.5c-0.2,0-0.4,0.2-0.4,0.4c0,0.2,0.2,0.4,0.4,0.4H11c0.2,0,0.4-0.2,0.4-0.4
			C11.4,1.3,11.2,1.1,11,1.1z M12.5,1.1h-0.4c-0.2,0-0.4,0.2-0.4,0.4c0,0.2,0.2,0.4,0.4,0.4h0.4c0.2,0,0.4-0.2,0.4-0.4
			C12.8,1.3,12.7,1.1,12.5,1.1z M20.8,1.7c-0.1-0.1-0.4-0.1-0.5,0c-0.1,0.1-0.1,0.4,0,0.5c1.4,1.4,1.4,3.7,0,5.1
			c-0.1,0.1-0.1,0.4,0,0.5C20.3,8,20.4,8,20.5,8c0.1,0,0.2,0,0.3-0.1C22.4,6.2,22.4,3.4,20.8,1.7z M19.2,2.6c-0.1-0.1-0.4-0.1-0.5,0
			c-0.1,0.1-0.1,0.4,0,0.5c0.5,0.5,0.7,1.1,0.7,1.8s-0.2,1.3-0.7,1.8c-0.1,0.1-0.1,0.4,0,0.5c0.1,0.1,0.2,0.1,0.3,0.1
			c0.1,0,0.2,0,0.3-0.1c0.6-0.6,0.9-1.4,0.9-2.3C20.1,4,19.8,3.2,19.2,2.6z M1.8,2.3c0.1-0.1,0.1-0.4,0-0.5c-0.1-0.1-0.4-0.1-0.5,0
			c-1.7,1.7-1.7,4.5,0,6.2C1.3,8,1.4,8,1.5,8c0.1,0,0.2,0,0.3-0.1c0.1-0.1,0.1-0.4,0-0.5C0.4,6,0.4,3.7,1.8,2.3z M2.6,4.8
			c0-0.7,0.2-1.3,0.7-1.8c0.1-0.1,0.1-0.4,0-0.5c-0.1-0.1-0.4-0.1-0.5,0C2.2,3.1,1.9,3.9,1.9,4.8s0.3,1.7,0.9,2.3
			C2.9,7.1,3,7.2,3,7.2c0.1,0,0.2,0,0.3-0.1c0.1-0.1,0.1-0.4,0-0.5C2.8,6.1,2.6,5.4,2.6,4.8z"/>
	</g>
</g>
</svg>
