<?xml version="1.0" encoding="utf-8"?>
<!-- Generator: Adobe Illustrator 20.1.0, SVG Export Plug-In . SVG Version: 6.00 Build 0)  -->
<svg version="1.1" id="Forma_1_1_" xmlns="http://www.w3.org/2000/svg" xmlns:xlink="http://www.w3.org/1999/xlink" x="0px" y="0px"
	 viewBox="0 0 20 20" style="enable-background:new 0 0 20 20;" xml:space="preserve">
<style type="text/css">
	.st0{fill-rule:evenodd;clip-rule:evenodd;}
</style>
<g id="Forma_1">
	<g>
		<path class="st0" d="M10,0C4.5,0,0,4.5,0,10c0,5.5,4.5,10,10,10c5.5,0,10-4.5,10-10C20,4.5,15.5,0,10,0z M10,19.3
			c-5.1,0-9.3-4.2-9.3-9.3c0-5.1,4.2-9.3,9.3-9.3c5.1,0,9.3,4.2,9.3,9.3C19.3,15.1,15.1,19.3,10,19.3z M15.3,9.7h-5.1L6.5,6
			C6.4,5.9,6.2,5.9,6,6C5.9,6.2,5.9,6.4,6,6.5l3.7,3.7c0.1,0.1,0.1,0.1,0.2,0.1h5.3c0.2,0,0.3-0.2,0.3-0.3
			C15.6,9.8,15.4,9.7,15.3,9.7z"/>
	</g>
</g>
</svg>
