<?xml version="1.0" encoding="utf-8"?>
<!-- Generator: Adobe Illustrator 20.1.0, SVG Export Plug-In . SVG Version: 6.00 Build 0)  -->
<svg version="1.1" id="Shape_1_1_" xmlns="http://www.w3.org/2000/svg" xmlns:xlink="http://www.w3.org/1999/xlink" x="0px" y="0px"
	 viewBox="0 0 20 19" style="enable-background:new 0 0 20 19;" xml:space="preserve">
<style type="text/css">
	.st0{fill-rule:evenodd;clip-rule:evenodd;}
</style>
<g id="Shape_1">
	<g>
		<path class="st0" d="M18.8,18.1l-5.4-5.4c1.2-1.3,1.9-3.1,1.9-5c0-4.2-3.4-7.7-7.7-7.7C3.4,0,0,3.4,0,7.7c0,4.2,3.4,7.7,7.7,7.7
			c1.9,0,3.7-0.7,5-1.9l5.4,5.4c0.1,0.1,0.2,0.2,0.4,0.2s0.3-0.1,0.4-0.2C19.1,18.6,19.1,18.3,18.8,18.1z M7.7,14.3
			c-3.6,0-6.6-3-6.6-6.6c0-3.6,3-6.6,6.6-6.6c3.6,0,6.6,3,6.6,6.6C14.3,11.3,11.3,14.3,7.7,14.3z"/>
	</g>
</g>
</svg>
